<?xml version="1.0" encoding="utf-8"?>
<!-- Generator: Adobe Illustrator 28.3.0, SVG Export Plug-In . SVG Version: 6.00 Build 0)  -->
<svg version="1.1" id="Capa_1" xmlns="http://www.w3.org/2000/svg" xmlns:xlink="http://www.w3.org/1999/xlink" x="0px" y="0px"
	 viewBox="0 0 525.4 377.7" style="enable-background:new 0 0 525.4 377.7;" xml:space="preserve">
<style type="text/css">
	.st0{fill:#2D2D2D;}
	.st1{fill:#F5F5F5;}
	.st2{fill:#1E1E1E;}
	.st3{fill:#E2E2E2;}
	.st4{fill:#EDEDED;}
	.st5{fill:#2C2C2C;}
	.st6{fill:#030303;}
	.st7{fill:#010101;}
	.st8{fill:#F1F1F1;}
	.st9{fill:#F4F4F4;}
</style>
<g>
	<path d="M517.7,366.9c-1.4-7.9-5.1-14.9-7.7-22.3c-2.7-7.7-5.4-15.5-6.8-23.6c-2.2-13.4-2.7-27.2-8.3-39.7
		c-5.1-11.4-7.4-23.2-8.2-35.4c-0.2-3.1-2.8-7.3,2.9-8.7c1-0.2,0.5-1.8,0.3-2.8c-0.4-2.2-0.7-4.4-1.3-6.6c-0.6-2.3-0.4-3.6,2.3-4.6
		c3.5-1.4,5-4.6,6-8.4c1.5-5.5-0.4-10.5-0.8-15.7c-0.6-7.4,1.1-14.8,0.7-22.1c-1.2-27.8-3.2-55.6-4.9-83.4c-0.2-2.6-0.8-5.2-3.1-6.8
		c-6.1-4.3-9-10.5-10.5-17.5c-2.6-11.8-6.5-23.1-11.2-34.2c-3-7.2-12.7-13.9-18.9-13c-8.2,1.2-12.2,7.5-14.9,14.7
		c-0.8,2.1-1.6,4.3-1.7,6.4c-0.4,8.8-4.4,17.1-2.4,26.3c0.7,3.1,0.6,8-2.7,10.3c-5.3,3.7-8,8.7-9.4,14.8c-4.8,21-12,41.2-20.8,60.8
		c-4.5,10-11.7,17.1-20.2,23.2c-4.4,3.2-7,7.3-8.3,12.2c0,1.3,0,2.7,0,4c1.9-0.2,1.7-2.6,3.2-3c0.7,1.4-0.2,2.5-0.4,3.6
		c-0.1,1.2,0.8,2.5,1.5,1.4c1.4-2.3,3.7-1.3,5.2-1.6c4.5-1,4.5-5.3,7-7.6c5.9-5.5,11.5-11.3,17.1-17c12-12.3,23.7-24.8,25.3-43.5h0
		c0.8,6.3,2.1,12.1-1.6,18.3c-14.3,24.2-28,48.8-40.1,74.2c-1.6,3.3-1,4.4,1.9,5.8c4,1.9,8,3.9,12.5,4.5c5.1,0.7,10.1,1.5,15.2,2.2
		c2.3,0.3,4.2,0.9,4.8,3.7c3.1,13.7,7.2,27.3,6.8,41.6c-0.3,9.3,1,18.5,2.8,27.6c2.1,10.4,5.4,20.6,5.8,31.4c0.3,8-1,15.7-2,23.6
		c-0.6,4.6,2.7,8.4,7.3,8.7c5.4,0.3,9.2-3,8.6-8.2c-1-7.7-0.4-15.4-0.4-23.2c0-2.8-0.2-5.7-2.4-7.6c-2.3-1.9-2.4-4.2-2.3-6.9
		c0.3-14.1,2.5-28.3,0.7-42.2c-1.7-13.6,1.6-27.1-0.4-40.6c-0.2-1.1-0.3-2.3,1.2-3c3.6-1.7,14.6,2.1,15.8,5.8
		c4,11.7,9.3,23,12.9,34.7c5.1,17,12.6,32.6,20.1,48.3c1.5,3,2.4,6,2,9.4c-0.7,5.3,0.5,10.2,2.3,15.1c1.6,4.2,3,8.4,3.6,12.9
		c1,7.7,2.9,9.2,10.7,9.5C516.8,372.8,518.4,371.1,517.7,366.9L517.7,366.9L517.7,366.9z"/>
	<path d="M367,194.8c0.2-1.4,0.4-2.7,0.8-4c0-1,0.1-1.9,0.2-2.9c0.7-6.9-0.1-13.7-4-20.7c-3-5.6-8.3-10.9-7.8-18.9
		c0.2-3-0.2-5.5,1.6-8c5.4-7.8,10.8-15.6,16.1-23.4c3.3-5,4-9.6,0.7-15.5c-3.9-6.9-10.6-12-12.2-20.3c-1.8-9-7.8-14.1-16.4-16.3
		c-11.4-3-15.1-12.8-7.5-22.1c0.4,0.8,0.8,1.6,1.2,2.4c0.8-1.2-0.3-3,1.1-4c1.2,0.8-0.3,2.7,1.1,3c4.1-8.1,1-16.1-0.6-23.9
		c-2.7-13.8-12.6-18.5-25-12.4c-0.7,0.3-1.3,0.7-2,1c-7.6,2.9-8.7,5.1-8.3,13.4c0.4,8,4.4,15.2,4.5,23.1c1.8,0.6,1.2-2.9,2.6-1.6
		c1.8,1.8,4,3.6,4.1,6.4c0.2,2.3-1.3,3.7-3.2,4.7c-3.6,1.9-7.2,3.6-11.3,4.5c-5.7,1.2-11.2,3.2-13.4,9.4c-3.3,9.3-6.1,18.7-7.1,28.6
		c-0.7,7.2-1.5,14.5-3.7,21.4c-2.4,7.8-2.1,15.4,0.3,23c1.5,5,3,10.1,5.4,14.6c5,9.7,6.2,18.8-1.4,27.8c-0.8,1-1.9,2.2-0.3,3.8
		c5.8,5.5,9.1,13.1,15.8,17.8c2.6,1.8,3.2,4.4,3.6,7.6c3.2,22.9-1.6,45.6-1.7,68.4c0,1.2-0.8,2.4-1.3,3.6
		c-9.1,19.7-21.7,36.7-40.1,48.7c-0.9,0.6-1.7,1.4-2.6,2.1c-5.4,4.4-5.8,7.1-1.4,12.6c1.1,1.4,2.5,2.8,4.1,3.7
		c4.3,2.4,7.3,5.2,2.9,10.7c5.6,0,10.1,2,14.4,2.7c3.3,0.6,5.3,2.1,7.9,3.3c1,0.4,1.8-0.1,2.5-0.6c7.8-5.1,18.1-8.4,14.5-21.4
		c-0.2-0.7,0.1-1.5,0.1-2.2c-0.1-2.1,1.1-3,3-3.3c1.9-0.4,3.1,0.5,3.9,2.2c1.3,2.6,0.9,5.5,1.4,8.2c0.3,1.4,0,2.9,2,3.4
		c7.7,1.6,15.1,2.9,21.8-3.5c5.3-5.1,23-5.4,28.2-0.4c4,3.8,8.5,5,13.6,5c2.2,0,6.4,1.6,4.6-3.8c-0.4-1.3,1.1-1.9,2.1-2.1
		c6.9-1.8,13.1-7.1,21.1-4.1l0,0c0.3-2.8-1.6-5.1-0.1-7.4c2.1-3.1,1.4-6.3,0.5-9.6c-3.7-13.8-7-27.8-11.2-41.5
		c-5.9-19.3-9.2-39.5-20.1-57c-1.1-1.8-1.9-4.3-1.8-6.4c0.9-10-2.1-19.7-2.6-29.7C367.6,194.9,367.3,194.9,367,194.8L367,194.8
		L367,194.8L367,194.8z M345.3,92.2c-0.5,1.1-1.2,2-2.6,1.9l0,0c-0.8-0.9-0.4-2-0.4-2.9c0-1.1-0.6-2.4,0.6-3.2
		c0.6-0.4,1.4-0.2,1.9,0.5C345.6,89.6,345.9,90.9,345.3,92.2L345.3,92.2L345.3,92.2z"/>
	<path d="M367.8,190.8c-0.3,1.3-0.6,2.6-0.8,4c0.3,0,0.6,0,0.8,0C367.7,193.5,367.7,192.1,367.8,190.8L367.8,190.8L367.8,190.8z"/>
</g>
<path d="M46.2,58.1c-0.6-4.5-3.5-8.3-3.3-13c0-0.9-0.6-1.1-1.3-1.5c-4-2.3-4.2-6.5-3.2-9.9c0.9-2.9,0.5-5.2-0.4-7.6
	c-1.9-5.4-0.6-10.3,1.7-15.1c0.5-1.1,1.3-2.3,2.4-2.5c3.9-0.6,7.6-2.4,11.4-2.7c13.5-1.1,21.9,9,19,22.3c-0.7,3.2,1.8,6.1,0.8,9.3
	c-0.4,1.3,0.4,3-0.8,3.9c-3.9,3-2.8,7.6-3.9,11.5c-0.7,6-4.9,9.7-8.8,13.5c-1.7,1.6-3.6,1.8-5.7,0.6c-3.3-1.8-6.2-4.1-8.3-7.3
	C45.8,58.9,45.9,58.5,46.2,58.1L46.2,58.1L46.2,58.1z"/>
<path d="M179.3,50.8c-1-2.5-2.4-4.9-2.1-7.7c0.1-0.8-0.1-1.5-0.9-2.3c-3.2-3.3-4.8-7.1-1.8-11.6c0.5-0.7,0.3-2.1,0-3
	c-1.7-7.2-1-12.9,6.5-17.2c7.5-4.4,13.4-5.5,20.8-1.1c2.3,1.4,4.3,3.1,5.2,5.5c2.6,7.5,2.5,15.6,2.1,23.2c-0.2,3.8-3.3,8.4-4.9,12.8
	c-0.6,1.5-1,2.8-0.5,4.3c1.2,2.4-0.6,3.6-2,4.9c-5.5,5-15.5,4.5-20.9-0.7C178.4,55.6,180.4,53,179.3,50.8L179.3,50.8L179.3,50.8
	L179.3,50.8z"/>
<path class="st0" d="M207.4,56.3c-0.5,4.3,2.2,7.8,4.3,10.8c4,6,2.9,11.2,0.3,17.1c-6.4,14.8-12.5,29.6-18.7,44.5
	c-0.1,0.1-0.1,0.3-0.2,0.4c-0.9,1.4-1,3.8-2.7,3.9c-1.9,0.1-1.8-2.4-2.4-3.8c-7-17.4-13.8-34.9-20.8-52.4c-0.7-1.6-0.4-2.8,0.5-4.2
	c2.5-4,4.6-8.1,7.1-12c1-1.5,1.1-3.1,1.5-4.6c0.3-0.5,0.7-0.9,1-1.4c2.2-1.3,2,0.7,2.4,1.8c1.2,3.4,0.2,7,1.1,10.3
	c2.8,10.6,4.8,21.5,6.2,32.4c0.2,1.7,0.4,3.3,0.3,4.9c0,0.1-0.3,0.7,0.3,0.5c0.1,0,0.1-0.6,0.3-0.8c3.1,0,2.2,2.5,2.3,4.1
	c0.4,4.8-1.3,9.6,0.2,14.4c0,0.1,0.1,0.2,0.1,0.3c2.4-4.3,0.9-9.2,2.3-13.7c2.1-8.1,3.2-16.4,4.9-24.6c0.8-4.1,1.6-8.2,3.4-12.1
	c1.9-4.1,1.2-8.9,2-13.3c0.3-1.6-0.2-3.7,2.1-4.2C206.1,55.1,206.7,55.7,207.4,56.3L207.4,56.3L207.4,56.3z"/>
<path class="st1" d="M205.4,54.6c-1,0.6-0.8,1.5-0.9,2.4c-1.4,17.6-7.9,34.1-10.1,51.6c0,0.1-0.1,0.4-0.2,0.4c-0.2,0.1-0.4,0-0.7,0
	c-1.2-1.2-1.2-2.7-1.2-4.2c0.1-7.7-0.6-15.4,0.6-23c0.8-5.2-0.9-10-2-15c-0.5,4.1-1.5,8.1-1.5,12.2c0,6.3,0,12.7,0,19
	c0,1.9,0.3,4-1.1,5.6c-0.1,1.6-0.2,3.3-0.3,4.9l-0.6,0.1c-1.2-7.2-2.6-14.4-3.5-21.6c-1.3-10.3-5.8-20-5-30.6
	c0.1-0.9-0.3-1.8-1.5-1.7c0.9-1.1,2.1-2.2,1.8-3.9c2,7,4.8,9.5,11.3,10c6.2,0.5,10.8-2.1,13.1-7.1C204.4,53.7,205.1,53.8,205.4,54.6
	L205.4,54.6L205.4,54.6L205.4,54.6L205.4,54.6z"/>
<path class="st0" d="M74.5,59.9c2.3,2,1.8,5.6,4.6,7.5c1.5,1,0.6,3,0.1,4.6c-4,11.3-8,22.7-11.9,34c-2.2,6.4-4.4,12.8-6.5,19.2
	c-0.6,0.3-1,0.2-1.3-0.4c-1.1-5.3,0.7-10.4,1.3-15.6c0.9-7.3,1.8-14.6,2.7-21.9c1.1-4.3,1.3-8.6,1.8-13c0.7-4.4,0.8-8.8,1.4-13.3
	c0.3-2.1,0.6-4.1,2.3-5.6C70.8,57,72.6,58.5,74.5,59.9L74.5,59.9L74.5,59.9z"/>
<path class="st2" d="M59.9,125.3c0.3,0,0.5,0,0.8,0c-0.2,1.9-0.8,3.7-2.3,0.8c-2.1-4.2-3.8-8.7-5.7-13.1
	C47.4,100.3,42,87.7,36.5,75.1c-0.9-2.2-1.4-3.8,0.7-5.5c2.1-1.7-1.5-1.9-1-3.3c4.2-1.7,6.8-5.2,10-8.2c0,0.4,0,0.7,0.1,1.1
	c2.9,4,2.3,9,3.6,13.5c1.1,5.7,1.3,11.6,3.4,17.1c1.1,8.1,2.4,16.2,4.6,24.2C58.8,117.7,58.3,121.7,59.9,125.3L59.9,125.3
	C59.9,125.4,59.9,125.3,59.9,125.3z"/>
<path class="st3" d="M48.9,72.8c-1.5-4.4-1.6-9.1-2.6-13.6c2.8,2.2,5.2,4.8,8.4,6.6c1.4,0.8,2.7,1.5,4,0.1c3.9-4,8.1-7.8,10.2-13.3
	c0,1,0.1,2,0.1,3C68,62,67.1,68.4,66.3,74.8c-1.6-0.7-3.2-1.6-4.8-2.4c-2.7-2.7-5.3-3.3-7.6,0.4C52.2,73.5,50.6,74.4,48.9,72.8
	L48.9,72.8L48.9,72.8z"/>
<g>
	<polygon points="207.4,56.3 207.4,56.3 207.4,56.3 	"/>
	<path d="M189.9,202.5c0.1,3,0.2,6,0.3,9.1c0.6,46.9-2.3,93.8,3.4,140.6c0.3,2.8,4,5.3,6,3.6c3.4-2.9,3.8,0.7,4.9,1.9
		c0.8,0.9,0.8,2.5,2.2,3.2c4.9,2.2,9.8,3.9,15.3,2.8c4.7-0.9,5.3-2.1,2-5.8c-4.1-4.6-8.5-9-12-14.1c-0.6-0.9-1.4-1.4-1.2-3
		c1-13.7,1.4-27.5,2.6-41.2c1.4-17.1-1.5-34.4,2-51.5c1.2-5.7,1.7-11.6,2.7-17.4c2.2-13.1,3.9-26.3,7.1-39.2
		c0.3-1.4,0.1-3.3,2.1-3.6c6.3-0.8,8.2-5.7,8.7-10.6c1.6-15.1,8.8-29.2,6.6-45.2c-0.9-6.4-0.8-13.4-0.8-20.2
		c0.1-12.7-2.6-25.2-4.7-37.7c-0.8-4.7-3.1-8.2-8.1-9.8c-7.3-2.4-14.3-5.4-21.4-8.1c-2.6,0.6-1.1,2.2-0.6,3.2c1.3,3,2.4,6.3,4.2,9
		c3.1,4.5,2.7,9,0.6,13.7c-5.5,12.3-10.6,24.7-15.9,37c-1.6,3.8-2.9,7.9-5,11.5c-1.7-0.8-1.8-2.3-2.3-3.5
		c-4.8-12.8-9.4-25.9-15.2-38.3c-4.7-10.1-5.6-18.6,2.1-27.2c1.4-1.5,2.4-3.6,1.1-5.8c-6.8,4.2-13.7,8.1-21.3,10.6
		c-5.6,1.8-9.1,5.1-8.5,11.6c0.1,0.8-0.3,1.8-0.6,2.6c-2.2,4.9-3.1,10.1-4,15.3c-1.3,7.4-1.5,15-3.6,22.3
		c-3.9,13.6-2.8,27.2,0.7,40.4c1.5,5.7,3.1,11.3,3.8,17.1c0.3,2.6,1.2,4.6,4,5.3c3.2,0.7,4.3,2.9,4,6.1c-0.3,4.2-0.6,8.4-0.7,12.7
		c-0.2,18.9-1.8,37.7-1.6,56.6c0.2,14.7-2.5,29.4-2.5,44.3c0,13.7-1.4,27.4-3.2,41c-0.8,6.5-3.7,9.3-8.4,12
		c-3.3,1.9-6.4,3.9-9.6,5.9c-1.2,0.8-1.8,1.8-1.6,3.4c0.3,1.8,1.6,2.2,2.9,2.4c7.8,1,15.5,1.8,22.4-3.8c2.2-1.8,5-3.5,8.6-1.4
		c2.9,1.7,7,0,7.3-2.4c0.7-5.8,1.6-11.4,3.4-17c3-9.4,2.1-19.5,2.8-29.2c1.1-15.6,0.6-31.3,4.5-46.7c5.3-20.9,9.8-42,13-63.4
		c0.5-0.5,0.6-1.2,0.8-1.9 M159.1,147.4c-6-11.6-1-22.5,1.3-33.6C161.9,125,161.1,136.2,159.1,147.4z M222.1,147.1
		c-1.4-11-2.6-21.7-0.4-32.6C224.4,125.3,227.3,136,222.1,147.1z"/>
</g>
<path class="st4" d="M218.7,100.7h-10.3c2-1.3,3.2-2.1,4.4-2.9C215.8,96,217.7,96.9,218.7,100.7z"/>
<path d="M101.7,180.7c4.9-0.4,4.1-4,4.9-6.4c2.1-5.7,3.5-11.5,5.3-17.3c3.4-10.9,6.1-22.1,4.4-33.4c-2.7-18.8-8-37.1-13.9-55.2
	c-0.9-2.6-2.2-3.9-5-4.4c-7.7-1.3-15.4-2.7-23.1-4.1h0c-0.1-0.1-0.3-0.2-0.4-0.2c-0.1,0-0.3,0-0.4,0.1c-0.9,1.3,0.5,1.8,0.8,2.6
	c1.4,3.8,4.7,6.7,2.8,11.8c-6.5,16.4-11.7,33.2-17.5,49.9c-0.1,0.2-0.1,0.3-0.2,0.4c-0.1,0.1-0.3,0.2-0.4,0.2
	c-2.3-1.7-2.1-4.5-3.1-6.8c-6-14-11.8-28.1-18-42c-0.8-1.8-1.6-3.6-0.1-5.5c2.2-2.6,0.2-3.4-1.9-4.2c-4.3,1.7-8.7,3.4-13,4.9
	c-2.8,1-4.4,3-5.1,5.8c-1.3,5.1-2.7,10.2-4,15.3c-3.6,14.3-7.3,28.7-7.6,43.6c-0.4,18.1,7.6,34.3,13.1,51c0.2,0.6,0.8,1.6,1.2,1.7
	c5.8,0.6,6.8,4.9,7.4,9.6c0.7,5.8,1.5,11.7,2.2,17.5c1.8,15.7,5.5,31.4,5.1,47.2c-0.5,22.2,6.6,43.1,10,64.6
	c0.4,2.3,0.4,3.9-0.8,5.8c-2.6,3.9-5.2,7.8-7.3,12c-1.5,3-2.2,6.7,0.5,9.4c2.8,2.8,6.3,1.6,9.7,0.5c8-2.6,8.5-11.8,14.5-16.2
	c0.4-0.3,0.1-1.5,0.3-2.2c1.2-5.7,0.1-11.4,0.3-17.1c0.4-8.8-3.9-16.7-3.1-25.7c1-11.1,0.4-22.4-2.8-33.3c-0.2-0.6-0.3-1.2-0.3-1.8
	c1.1-14.4,2.1-28.9,3.5-43.3c0.5-5,0.5-10.2,2.5-15.3c1.7,2.1,2.2,4.3,2.7,6.4c2.9,12.6,7.1,24.9,10.4,37.5
	c2.6,9.5,4.7,19.3,3.7,29.4c-1.1,10.6-1.3,21.2,1,31.6c2.3,10.4,2.1,20.8,1.1,31.3c-0.6,6-2.3,12.1,5.3,15.1c0.8,0.3,0.8,1.2,1,1.9
	c2.5,9.2,6.6,12.4,15.8,12.4c5,0,6.5-1.6,6-6.6c-0.2-2.1-1.1-4-2.2-5.9c-2-3.2-4-6.4-5.8-9.7c-1.2-2.2-2.6-4.7-1.7-7.3
	c2.4-6.8,1.9-13.6,1.7-20.6c-0.4-15.3,0.6-30.6-0.7-45.8c-2.4-27.1-2.2-54.4-3.2-81.5C97.5,184.8,99.9,180.8,101.7,180.7
	L101.7,180.7L101.7,180.7z M29.1,159.7L29.1,159.7c-4.4-11.3-5.8-22.8-2.1-34.6c1.3-4.1,2.9-8.2,2.7-12.6
	C34.8,128.3,34.1,144,29.1,159.7z M96.2,144.6c-0.8-9.9-1.5-19.8-2.4-30.2C98.8,121.5,100,139.3,96.2,144.6z"/>
<path class="st5" d="M85.4,95.4c1.6,0.1,3-0.3,3.3,1.4c0.3,1.9-1,2.1-2.5,2.2c-3.3,0.3-6.5,0.7-9.7,1.2c-1.2,0.2-2.5,0.9-2.8-0.9
	c-0.3-1.8,0.6-2.9,2.5-3C79.3,96.3,82.6,96.3,85.4,95.4C85.4,95.4,85.4,95.4,85.4,95.4z"/>
<path class="st6" d="M188.4,103.5c-0.1-9.2-0.2-18.4-0.3-27.7c0-3,2.5-5.8,0.4-9.1c-0.5-0.8,1.4-2.9,2.9-2.8c1,0.1,2.4,1.3,2.4,2.9
	c-0.3,7.7,0.8,15.4,0.2,23.1c-0.5,6.3-0.3,12.7-0.4,19c0.3,5.3-0.6,10.5-1.8,15.7c-0.2,0.7-0.2,1.5-1.4,1.9
	c-0.8-4.4-2.6-8.5-1.5-13.3C189.7,110.2,189.8,106.7,188.4,103.5L188.4,103.5L188.4,103.5z"/>
<path class="st7" d="M53.5,72.7c-0.3-2.4,1.7-3.9,3.1-4.2c2.1-0.4,4.1,1.1,5.1,3.3c-0.6,5.4,3.2,10,2.6,15.4
	c-0.3,11.4-2.6,22.5-4.1,33.7c-0.2,1.5-0.3,3-0.4,4.4c-3.6-4.6-2.7-10.5-4.4-15.6c-1.6-4.8-1.9-9.9-3.2-14.7
	c-0.5-1.9,1.1-3.5,0.3-5.2c-1.3-2.3-0.9-4.7-0.2-6.9C53.3,79.5,53.8,76.2,53.5,72.7L53.5,72.7L53.5,72.7L53.5,72.7z"/>
<path class="st8" d="M64.4,87.2c-0.8-2.2-1.3-4.6-2.4-6.6c-1.7-3-1.7-5.9-0.2-8.8c1.8,0.6,4.1,0.4,4.6,2.9
	C65.9,78.9,66.2,83.3,64.4,87.2L64.4,87.2L64.4,87.2z"/>
<path class="st9" d="M53.5,72.7c2,2.3,2.1,4.7,0.9,7.4c-1.3,3-2.1,6.2-1.8,9.6c-1.9-0.4-1.4-2-1.6-3.2c-0.7-4.6-1.3-9.1-2-13.7
	C50.5,73.2,52,71.8,53.5,72.7L53.5,72.7z"/>
</svg>
